<svg xmlns="http://www.w3.org/2000/svg" width="1280" height="320" viewBox="0 0 1280 320">
  <style>
    .box{fill:#fff7ed;stroke:#9a3412;stroke-width:2;rx:12}
    .title{font:700 19px Arial;fill:#7c2d12}
    .label{font:14px Arial;fill:#44403c}
    .arrow{stroke:#ea580c;stroke-width:3;marker-end:url(#m)}
  </style>
  <defs><marker id="m" markerWidth="10" markerHeight="10" refX="9" refY="3" orient="auto"><path d="M0,0 L0,6 L9,3 z" fill="#ea580c"/></marker></defs>
  <rect class="box" x="25" y="75" width="185" height="155"/>
  <text class="title" x="48" y="110">Order producer</text>
  <text class="label" x="48" y="145">JSON events</text>
  <text class="label" x="48" y="172">Kafka / files</text>
  <line class="arrow" x1="210" y1="150" x2="270" y2="150"/>
  <rect class="box" x="275" y="75" width="190" height="155"/>
  <text class="title" x="300" y="110">Redpanda</text>
  <text class="label" x="300" y="145">Kafka API</text>
  <text class="label" x="300" y="172">durable buffer</text>
  <line class="arrow" x1="465" y1="150" x2="525" y2="150"/>
  <rect class="box" x="530" y="75" width="210" height="155"/>
  <text class="title" x="555" y="110">Spark Streaming</text>
  <text class="label" x="555" y="145">checkpoint + Bronze</text>
  <text class="label" x="555" y="172">Silver + quarantine</text>
  <line class="arrow" x1="740" y1="150" x2="800" y2="150"/>
  <rect class="box" x="805" y="75" width="205" height="155"/>
  <text class="title" x="830" y="110">Gold marts</text>
  <text class="label" x="830" y="145">regional revenue</text>
  <text class="label" x="830" y="172">velocity + forecast</text>
  <line class="arrow" x1="1010" y1="150" x2="1070" y2="150"/>
  <rect class="box" x="1075" y="75" width="180" height="155"/>
  <text class="title" x="1100" y="110">Power BI</text>
  <text class="label" x="1100" y="145">Vietnam map</text>
  <text class="label" x="1100" y="172">sales outlook</text>
</svg>
